<svg width="59" height="59" viewBox="0 0 59 59" fill="none" xmlns="http://www.w3.org/2000/svg">
<circle opacity="0.3" cx="29.5" cy="29.5" r="29.5" fill="#4DB8F5"/>
<g clip-path="url(#clip0_37_13)">
<path d="M46.2111 25.4097V19.1242L23.5001 4.07715L0.788818 19.1242V25.4097L6.78415 38.2663L23.5001 40.2663L40.4018 37.8854L46.2111 25.4097Z" fill="white"/>
<path d="M38.1165 9.70605H8.88361V41.7224H38.1165V9.70605Z" fill="white"/>
<path d="M0.788818 48.9224V25.4097L15.6601 36.0831L10.0222 46.1708L0.788818 48.9224Z" fill="white"/>
<path d="M46.2111 48.9224V25.4097L31.3398 36.0831L36.9778 46.1708L46.2111 48.9224Z" fill="white"/>
<path d="M46.2111 48.9226H0.788818L23.5001 29.3145L46.2111 48.9226Z" fill="white"/>
<path d="M15.667 16.0969H31.3468C31.7788 16.0969 32.1287 15.7468 32.1287 15.315C32.1287 14.8832 31.7788 14.5332 31.3468 14.5332H15.667C15.2351 14.5332 14.8851 14.8832 14.8851 15.315C14.8851 15.7468 15.2351 16.0969 15.667 16.0969Z" fill="#6A86FB"/>
<path d="M15.667 19.7155H31.3468C31.7788 19.7155 32.1287 19.3655 32.1287 18.9337C32.1287 18.5019 31.7788 18.1519 31.3468 18.1519H15.667C15.2351 18.1519 14.8851 18.5019 14.8851 18.9337C14.8851 19.3655 15.2351 19.7155 15.667 19.7155Z" fill="#6A86FB"/>
<path d="M15.667 23.3347H31.3468C31.7788 23.3347 32.1287 22.9846 32.1287 22.5528C32.1287 22.121 31.7788 21.771 31.3468 21.771H15.667C15.2351 21.771 14.8851 22.121 14.8851 22.5528C14.8851 22.9846 15.2351 23.3347 15.667 23.3347Z" fill="#6A86FB"/>
<path d="M46.65 18.4728L38.8829 13.3269C38.8828 12.1323 38.8828 10.9306 38.8828 9.71708C38.8828 9.28527 38.5329 8.93525 38.101 8.93525H32.2542L23.9387 3.42588C23.6768 3.25257 23.3369 3.25257 23.0751 3.42588L14.7595 8.93525H8.91282C8.48091 8.93525 8.13098 9.28527 8.13098 9.71708C8.13098 10.9388 8.13089 12.1376 8.13016 13.3273C7.38771 13.818 2.11518 17.208 0.308804 18.5808C0.114287 18.7286 0 18.9589 0 19.2032L0.0138613 48.9229C0.0138613 48.9295 0.0151465 48.9357 0.01533 48.9422C0.0210214 49.1265 0.094367 49.3166 0.223617 49.4532C0.371685 49.6094 0.580431 49.7049 0.796704 49.7046H46.2182C46.4364 49.7046 46.6455 49.6068 46.7941 49.4491C46.9203 49.3151 46.9943 49.1261 46.9985 48.9423C46.9987 48.9358 47 48.9294 47 48.923V19.1246C46.9999 18.8624 46.8685 18.6177 46.65 18.4728ZM23.5069 5.01543L29.4075 8.92478H17.6063L23.5069 5.01543ZM45.4362 19.5445V25.0088L38.905 29.6964V15.2173L45.4362 19.5445ZM8.11951 15.204C8.12281 15.8013 8.11666 19.487 8.10932 20.7546C8.10914 20.7747 8.10914 20.7946 8.10886 20.8147C8.10886 20.8158 8.10895 20.8168 8.10895 20.8178C8.10895 20.8257 8.10895 20.8335 8.10886 20.8415C8.10638 21.2733 8.4542 21.6254 8.88601 21.6279C8.88767 21.6279 8.88913 21.6279 8.89079 21.6279C9.32039 21.6279 9.67005 21.2809 9.67253 20.8506C9.67262 20.8308 9.67271 20.8112 9.6728 20.7913C9.68464 19.5092 9.69456 12.6898 9.69456 10.499H37.319C37.319 17.4196 37.3199 23.9979 37.3401 30.8197L31.3913 35.0891L24.0177 28.723C23.7241 28.4696 23.2895 28.4696 22.9958 28.723L15.6222 35.0891L9.67537 30.821C9.68015 30.2663 9.68354 25.594 9.67234 24.4693C9.66803 24.0401 9.31883 23.6952 8.89069 23.6952C8.88812 23.6952 8.88537 23.6952 8.8828 23.6952C8.4509 23.6996 8.10446 24.053 8.10868 24.4848C8.10868 24.4859 8.10868 24.4871 8.10868 24.4882C8.10868 24.4884 8.10868 24.4886 8.10868 24.4888C8.11988 25.6065 8.12089 29.5355 8.11997 29.7046L1.56348 24.9988V19.5931C3.23299 18.3481 7.65557 15.5054 8.11951 15.204ZM1.57753 26.9728C3.06225 28.0354 11.5489 34.1331 14.3988 36.1454L1.57753 47.2148V26.9728ZM2.89765 48.141L23.5069 30.3476L36.2207 41.3242C36.3637 41.4478 36.5387 41.5102 36.7137 41.5141C36.9138 41.5186 37.1144 41.4464 37.268 41.3012C37.2872 41.283 37.3056 41.2637 37.3233 41.2434C37.3585 41.2025 37.3888 41.159 37.4142 41.1137C37.4776 41.0004 37.5103 40.8754 37.5132 40.7501C37.5182 40.5249 37.4263 40.2993 37.2425 40.1405L32.6088 36.1398L45.4363 26.9335V47.2147L39.6195 42.1929C39.2925 41.9106 38.7991 41.947 38.5168 42.2737C38.2346 42.6005 38.2709 43.0943 38.5976 43.3764L44.116 48.1409L2.89765 48.141Z" fill="#6A86FB"/>
</g>
<defs>
<clipPath id="clip0_37_13">
<rect width="47" height="47" fill="white" transform="translate(0 3)"/>
</clipPath>
</defs>
</svg>
