<svg width="75" height="62" viewBox="0 0 75 62" fill="none" xmlns="http://www.w3.org/2000/svg">
<circle opacity="0.2" cx="45.5" cy="30.5" r="29.5" fill="#6A86FB"/>
<path d="M52.7242 11.3647H7.19903C6.27266 11.3647 5.52188 12.1155 5.52188 13.0419V44.054C5.52188 44.9804 6.27266 45.7312 7.19903 45.7312H52.7242C53.6506 45.7312 54.4014 44.9804 54.4014 44.054V13.0419C54.4014 12.1155 53.6506 11.3647 52.7242 11.3647Z" fill="white"/>
<path d="M52.7242 9.72363H7.19903C5.37051 9.72363 3.88712 11.207 3.88712 13.0355V44.0477C3.88712 45.8762 5.37051 47.3596 7.19903 47.3596H38.635C38.7258 47.4564 38.8287 47.5473 38.9559 47.6199L47.499 52.5545C48.377 53.0631 49.4729 52.4273 49.4729 51.4102V47.3596H52.7182C54.5467 47.3596 56.0301 45.8762 56.0301 44.0477V13.0416C56.0361 11.2131 54.5527 9.72363 52.7242 9.72363ZM54.4014 44.0477C54.4014 44.974 53.6506 45.7248 52.7242 45.7248H7.19903C6.27266 45.7248 5.52188 44.974 5.52188 44.0477V13.0416C5.52188 12.1152 6.27266 11.3645 7.19903 11.3645H52.7242C53.6506 11.3645 54.4014 12.1152 54.4014 13.0416V44.0477Z" fill="#6A86FB"/>
<path d="M39.4765 23.4316H13.2719C12.7088 23.4316 12.2426 22.9715 12.2426 22.4023C12.2426 21.8393 12.7027 21.373 13.2719 21.373H39.4765C40.0396 21.373 40.5058 21.8332 40.5058 22.4023C40.5058 22.9654 40.0457 23.4316 39.4765 23.4316ZM45.9248 29.3107H13.2719C12.7088 29.3107 12.2426 28.8506 12.2426 28.2814C12.2426 27.7184 12.7027 27.2521 13.2719 27.2521H45.9308C46.4939 27.2521 46.9601 27.7123 46.9601 28.2814C46.9541 28.8506 46.4939 29.3107 45.9248 29.3107ZM45.9248 35.1959H13.2658C12.7027 35.1959 12.2365 34.7357 12.2365 34.1666C12.2365 33.6035 12.6967 33.1373 13.2658 33.1373H45.9248C46.4879 33.1373 46.9541 33.5975 46.9541 34.1666C46.9541 34.7357 46.4939 35.1959 45.9248 35.1959Z" fill="#6A86FB"/>
</svg>
