<svg width="60" height="59" viewBox="0 0 60 59" fill="none" xmlns="http://www.w3.org/2000/svg">
<circle opacity="0.2" cx="30.5" cy="29.5" r="29.5" fill="#6A86FB"/>
<path d="M1 28.5833C1 20.4123 1 16.3268 3.5384 13.7884C6.07682 11.25 10.1623 11.25 18.3333 11.25H27C35.1709 11.25 39.2566 11.25 41.7949 13.7884C44.3333 16.3268 44.3333 20.4123 44.3333 28.5833V32.9167C44.3333 41.0876 44.3333 45.1733 41.7949 47.7115C39.2566 50.25 35.1709 50.25 27 50.25H18.3333C10.1623 50.25 6.07682 50.25 3.5384 47.7115C1 45.1733 1 41.0876 1 32.9167V28.5833Z" fill="white" stroke="#6A86FB" stroke-width="2"/>
<path d="M11.833 11.25V8" stroke="#6A86FB" stroke-width="2" stroke-linecap="round"/>
<path d="M33.5 11.25V8" stroke="#6A86FB" stroke-width="2" stroke-linecap="round"/>
<path d="M1 22.0833H44.3333" stroke="#6A86FB" stroke-width="2" stroke-linecap="round"/>
<path d="M32.417 41.5833C34.2119 41.5833 35.667 40.1282 35.667 38.3333C35.667 36.5383 34.2119 35.0833 32.417 35.0833C30.6221 35.0833 29.167 36.5383 29.167 38.3333C29.167 40.1282 30.6221 41.5833 32.417 41.5833Z" stroke="#6A86FB" stroke-width="2"/>
</svg>
