<svg width="62" height="70" viewBox="0 0 62 70" fill="none" xmlns="http://www.w3.org/2000/svg">
<circle opacity="0.2" cx="29.5" cy="40.4995" r="29.5" fill="#6A86FB"/>
<path d="M12.5747 51.0853L17.421 55.13L36.7117 32.0164C36.4199 31.8844 36.1366 31.7353 35.8592 31.5771C35.8164 31.553 35.7752 31.5268 35.7336 31.5016C35.4657 31.3463 35.2084 31.1785 34.9566 30.9995C34.9114 30.968 34.8661 30.9369 34.8218 30.9047C34.256 30.4907 33.7346 30.0204 33.2625 29.5031C33.2263 29.4613 33.1899 29.4207 33.1539 29.3798C32.9288 29.1247 32.7129 28.8629 32.5133 28.5868C32.5075 28.5796 32.5021 28.5727 32.4975 28.5665C32.3212 28.3218 32.1535 28.0714 31.9974 27.8119L12.5739 51.0847L12.5747 51.0853ZM48.736 27.6656C50.9123 25.0581 51.5774 21.5898 50.575 18.5081L46.4869 23.4064C46.3203 23.606 46.0804 23.728 45.826 23.741L40.4658 24.0321C40.2377 24.0453 40.0252 23.9689 39.8634 23.8338C39.7015 23.6988 39.5885 23.5032 39.5605 23.2765L38.8884 17.9508C38.8556 17.6981 38.9327 17.4402 39.0992 17.2407L43.1872 12.3426C39.9761 11.9077 36.6825 13.1822 34.5063 15.7898C32.1555 18.6064 31.5693 22.5417 33.0116 25.8161C33.1424 26.1126 33.2876 26.4 33.4453 26.6781C33.9229 27.5094 34.5215 28.2497 35.2201 28.8796C35.687 29.2981 36.1962 29.6698 36.7451 29.9835C37.2938 30.2973 37.8791 30.5563 38.4968 30.7524L38.4988 30.754C42.1725 31.9262 46.1919 30.7139 48.736 27.6656Z" fill="white"/>
<path d="M17.7387 56.3067L11.5811 51.1676C11.2093 50.8573 11.1593 50.3055 11.4699 49.9335L31.1376 26.3681C29.6715 22.661 30.3323 18.3795 32.8941 15.3101C35.7279 11.9146 40.2907 10.5598 44.521 11.8564C44.8036 11.9431 45.0197 12.1635 45.1035 12.4451C45.1863 12.7256 45.1238 13.0304 44.9363 13.2551L40.3543 18.7451L40.9352 22.7701L44.9986 22.6212L49.5806 17.1312C49.7681 16.9066 50.0568 16.7905 50.3474 16.8217C50.5225 16.8418 50.6836 16.9105 50.815 17.0201C50.9029 17.0935 50.9773 17.1846 51.0319 17.2901C53.0643 21.2201 52.5473 25.9518 49.7135 29.3472C46.9399 32.6705 42.5666 34.016 38.4279 32.8849L18.9728 56.1955C18.6623 56.5675 18.1105 56.6171 17.7387 56.3067ZM13.3771 50.3836L18.1888 54.3995L36.6743 32.2506C36.3866 32.1173 36.1068 31.9675 35.8326 31.809C35.7903 31.7847 35.7496 31.7586 35.7084 31.7333C35.4435 31.5777 35.1889 31.4102 34.9394 31.2319C34.8946 31.2004 34.8498 31.1695 34.8059 31.1374C34.2451 30.7251 33.7268 30.2589 33.256 29.7478C33.2198 29.7065 33.1835 29.6664 33.1476 29.626C32.923 29.3741 32.7072 29.1159 32.5071 28.844C32.5014 28.8369 32.496 28.8301 32.4913 28.8239C32.3146 28.583 32.1463 28.3366 31.9891 28.0816L13.3763 50.383L13.3771 50.3836ZM48.368 28.2243C50.4534 25.7257 51.0454 22.3642 50.0118 19.3503L46.0943 24.0441C45.9347 24.2353 45.702 24.3499 45.4533 24.3583L40.2124 24.5501C39.9894 24.559 39.7801 24.4811 39.6194 24.347C39.4588 24.2129 39.3449 24.0207 39.3136 23.7999L38.5651 18.6093C38.5287 18.363 38.5998 18.1135 38.7594 17.9223L42.6767 13.2287C39.5267 12.751 36.3251 13.9345 34.2397 16.4331C31.987 19.1323 31.4804 22.9492 32.9476 26.1581C33.0807 26.4486 33.2277 26.7306 33.3868 27.0037C33.8684 27.8203 34.4668 28.5503 35.1612 29.1748C35.6252 29.5898 36.13 29.9599 36.6724 30.2742C37.2148 30.5887 37.792 30.8506 38.3999 31.0518C38.4005 31.0523 38.4012 31.0529 38.4018 31.0534C42.0171 32.2559 45.9301 31.1454 48.368 28.2243Z" fill="#6A86FB"/>
<path d="M19.057 48.4687C20.0457 49.2939 20.1788 50.7704 19.3536 51.7591C18.5281 52.7482 17.0518 52.8811 16.0631 52.056C15.0739 51.2304 14.9409 49.7547 15.7666 48.7654C16.5918 47.7766 18.0679 47.6432 19.057 48.4687ZM17.1861 50.7103C17.4332 50.9166 17.8018 50.8831 18.008 50.6361C18.2139 50.3894 18.1808 50.0204 17.9339 49.8143C17.687 49.6083 17.3177 49.6418 17.112 49.8883C16.9058 50.1354 16.939 50.5041 17.1861 50.7103Z" fill="#6A86FB"/>
<path d="M48.0765 14.8972C47.7687 14.8433 47.5118 14.6289 47.4038 14.3358L46.2291 11.1331C46.1209 10.8389 46.1784 10.51 46.3786 10.2702L48.5649 7.6506C48.7649 7.41101 49.0792 7.29425 49.3876 7.34865L52.7487 7.93155C52.9017 7.95859 53.0434 8.02571 53.1598 8.12281C53.2761 8.21991 53.3675 8.34731 53.4214 8.493L54.5961 11.6957C54.704 11.991 54.6461 12.3195 54.4462 12.5591L52.2598 15.1787C52.0597 15.4185 51.7463 15.5348 51.4376 15.4801L48.0765 14.8972ZM51.1976 12.0708C51.5589 11.6379 51.5004 10.9914 51.0671 10.6298C50.6346 10.2688 49.9886 10.3274 49.6273 10.7603C49.266 11.1932 49.3239 11.8392 49.7564 12.2002C50.1899 12.5617 50.8362 12.5037 51.1976 12.0708Z" fill="#6A86FB"/>
</svg>
