<svg width="50" height="50" viewBox="0 0 50 50" fill="none" xmlns="http://www.w3.org/2000/svg">
<circle cx="25" cy="25" r="25" fill="#BBF4B6"/>
<g clip-path="url(#clip0_53_34)">
<path d="M20.25 18.5C20.25 19.4665 19.4665 20.25 18.5 20.25C17.5335 20.25 16.75 19.4665 16.75 18.5C16.75 17.5335 17.5335 16.75 18.5 16.75C19.4665 16.75 20.25 17.5335 20.25 18.5Z" stroke="#73B16D" stroke-width="2"/>
<path d="M20.25 32.5C20.25 33.4665 19.4665 34.25 18.5 34.25C17.5335 34.25 16.75 33.4665 16.75 32.5C16.75 31.5335 17.5335 30.75 18.5 30.75C19.4665 30.75 20.25 31.5335 20.25 32.5Z" stroke="#73B16D" stroke-width="2"/>
<path d="M27.25 32.5C27.25 33.4665 26.4665 34.25 25.5 34.25C24.5335 34.25 23.75 33.4665 23.75 32.5C23.75 31.5335 24.5335 30.75 25.5 30.75C26.4665 30.75 27.25 31.5335 27.25 32.5Z" stroke="#73B16D" stroke-width="2"/>
<path d="M27.25 18.5C27.25 19.4665 26.4665 20.25 25.5 20.25C24.5335 20.25 23.75 19.4665 23.75 18.5C23.75 17.5335 24.5335 16.75 25.5 16.75C26.4665 16.75 27.25 17.5335 27.25 18.5Z" stroke="#73B16D" stroke-width="2"/>
<path d="M34.25 18.5C34.25 19.4665 33.4665 20.25 32.5 20.25C31.5335 20.25 30.75 19.4665 30.75 18.5C30.75 17.5335 31.5335 16.75 32.5 16.75C33.4665 16.75 34.25 17.5335 34.25 18.5Z" stroke="#73B16D" stroke-width="2"/>
<path d="M18.5 20.25V30.75" stroke="#73B16D" stroke-width="2" stroke-linecap="round"/>
<path d="M25.5 20.25V30.75" stroke="#73B16D" stroke-width="2" stroke-linecap="round"/>
<path d="M32.5 20.25V22C32.5 23.6499 32.5 24.4748 31.9874 24.9874C31.4748 25.5 30.6499 25.5 29 25.5H18.5" stroke="#73B16D" stroke-width="2" stroke-linecap="round"/>
</g>
<defs>
<clipPath id="clip0_53_34">
<rect width="21" height="21" fill="white" transform="translate(15 15)"/>
</clipPath>
</defs>
</svg>
