<svg width="50" height="50" viewBox="0 0 50 50" fill="none" xmlns="http://www.w3.org/2000/svg">
<circle cx="25" cy="25" r="25" fill="#DCE3FF"/>
<g clip-path="url(#clip0_53_32)">
<path d="M33.4219 14.7188H32.3906V13H30.6719V14.7188H19.3281V13H17.6094V14.7188H16.5781C15.1565 14.7188 14 15.8753 14 17.2969V32.4219C14 33.8435 15.1565 35 16.5781 35H33.4219C34.8435 35 36 33.8435 36 32.4219V17.2969C36 15.8753 34.8435 14.7188 33.4219 14.7188ZM34.2812 32.4219C34.2812 32.8957 33.8957 33.2812 33.4219 33.2812H16.5781C16.1043 33.2812 15.7188 32.8957 15.7188 32.4219V21.0781H34.2812V32.4219ZM34.2812 19.3594H15.7188V17.2969C15.7188 16.823 16.1043 16.4375 16.5781 16.4375H17.6094V18.1562H19.3281V16.4375H30.6719V18.1562H32.3906V16.4375H33.4219C33.8957 16.4375 34.2812 16.823 34.2812 17.2969V19.3594Z" fill="#6A86FB"/>
<path d="M18.9844 22.8828H17.2656V24.6016H18.9844V22.8828Z" fill="#6A86FB"/>
<path d="M22.4219 22.8828H20.7031V24.6016H22.4219V22.8828Z" fill="#6A86FB"/>
<path d="M25.8594 22.8828H24.1406V24.6016H25.8594V22.8828Z" fill="#6A86FB"/>
<path d="M29.2969 22.8828H27.5781V24.6016H29.2969V22.8828Z" fill="#6A86FB"/>
<path d="M32.7344 22.8828H31.0156V24.6016H32.7344V22.8828Z" fill="#6A86FB"/>
<path d="M18.9844 26.3203H17.2656V28.0391H18.9844V26.3203Z" fill="#6A86FB"/>
<path d="M22.4219 26.3203H20.7031V28.0391H22.4219V26.3203Z" fill="#6A86FB"/>
<path d="M25.8594 26.3203H24.1406V28.0391H25.8594V26.3203Z" fill="#6A86FB"/>
<path d="M29.2969 26.3203H27.5781V28.0391H29.2969V26.3203Z" fill="#6A86FB"/>
<path d="M18.9844 29.7578H17.2656V31.4766H18.9844V29.7578Z" fill="#6A86FB"/>
<path d="M22.4219 29.7578H20.7031V31.4766H22.4219V29.7578Z" fill="#6A86FB"/>
<path d="M25.8594 29.7578H24.1406V31.4766H25.8594V29.7578Z" fill="#6A86FB"/>
<path d="M29.2969 29.7578H27.5781V31.4766H29.2969V29.7578Z" fill="#6A86FB"/>
<path d="M32.7344 26.3203H31.0156V28.0391H32.7344V26.3203Z" fill="#6A86FB"/>
</g>
<defs>
<clipPath id="clip0_53_32">
<rect width="22" height="22" fill="white" transform="translate(14 13)"/>
</clipPath>
</defs>
</svg>
