<svg width="50" height="50" viewBox="0 0 50 50" fill="none" xmlns="http://www.w3.org/2000/svg">
<circle cx="25" cy="25" r="25" fill="#ECB6F4"/>
<g clip-path="url(#clip0_53_35)">
<path d="M16.25 15.625V34.375C16.25 34.5408 16.1842 34.6997 16.0669 34.8169C15.9497 34.9342 15.7908 35 15.625 35C15.4592 35 15.3003 34.9342 15.1831 34.8169C15.0658 34.6997 15 34.5408 15 34.375V15.625C15 15.4592 15.0658 15.3003 15.1831 15.1831C15.3003 15.0658 15.4592 15 15.625 15C15.7908 15 15.9497 15.0658 16.0669 15.1831C16.1842 15.3003 16.25 15.4592 16.25 15.625ZM19.375 15H18.125C17.9592 15 17.8003 15.0658 17.6831 15.1831C17.5658 15.3003 17.5 15.4592 17.5 15.625V34.375C17.5 34.5408 17.5658 34.6997 17.6831 34.8169C17.8003 34.9342 17.9592 35 18.125 35H19.375C19.5408 35 19.6997 34.9342 19.8169 34.8169C19.9342 34.6997 20 34.5408 20 34.375V15.625C20 15.4592 19.9342 15.3003 19.8169 15.1831C19.6997 15.0658 19.5408 15 19.375 15ZM30.625 15H26.875C26.7092 15 26.5503 15.0658 26.4331 15.1831C26.3158 15.3003 26.25 15.4592 26.25 15.625V34.375C26.25 34.5408 26.3158 34.6997 26.4331 34.8169C26.5503 34.9342 26.7092 35 26.875 35H30.625C30.7908 35 30.9497 34.9342 31.0669 34.8169C31.1842 34.6997 31.25 34.5408 31.25 34.375V15.625C31.25 15.4592 31.1842 15.3003 31.0669 15.1831C30.9497 15.0658 30.7908 15 30.625 15ZM21.875 15C21.7092 15 21.5503 15.0658 21.4331 15.1831C21.3158 15.3003 21.25 15.4592 21.25 15.625V34.375C21.25 34.5408 21.3158 34.6997 21.4331 34.8169C21.5503 34.9342 21.7092 35 21.875 35C22.0408 35 22.1997 34.9342 22.3169 34.8169C22.4342 34.6997 22.5 34.5408 22.5 34.375V15.625C22.5 15.4592 22.4342 15.3003 22.3169 15.1831C22.1997 15.0658 22.0408 15 21.875 15ZM34.375 15C34.2092 15 34.0503 15.0658 33.9331 15.1831C33.8158 15.3003 33.75 15.4592 33.75 15.625V34.375C33.75 34.5408 33.8158 34.6997 33.9331 34.8169C34.0503 34.9342 34.2092 35 34.375 35C34.5408 35 34.6997 34.9342 34.8169 34.8169C34.9342 34.6997 35 34.5408 35 34.375V15.625C35 15.4592 34.9342 15.3003 34.8169 15.1831C34.6997 15.0658 34.5408 15 34.375 15Z" fill="#C361D1"/>
</g>
<defs>
<clipPath id="clip0_53_35">
<rect width="20" height="20" fill="white" transform="translate(15 15)"/>
</clipPath>
</defs>
</svg>
