<svg width="50" height="50" viewBox="0 0 50 50" fill="none" xmlns="http://www.w3.org/2000/svg">
<path d="M28.6406 42.5391H6.90625C6.3963 42.5371 5.90733 42.3358 5.54383 41.9782C5.18033 41.6205 4.97113 41.1349 4.96094 40.625V9.46875C4.96094 8.95282 5.16589 8.45802 5.53071 8.09321C5.89552 7.72839 6.39032 7.52344 6.90625 7.52344H38.0313C38.5472 7.52344 39.042 7.72839 39.4068 8.09321C39.7716 8.45802 39.9766 8.95282 39.9766 9.46875V26.9687" stroke="#6A86FB" stroke-width="1.5"/>
<path d="M4.96094 14.1172H39.9766" stroke="#6A86FB" stroke-width="1.5"/>
<path d="M10.9609 21.1172H24" stroke="#6A86FB" stroke-width="1.5"/>
<path d="M10.9609 27.1172H20.9766" stroke="#6A86FB" stroke-width="1.5"/>
<path d="M12.8594 7.52344V3.61719" stroke="#6A86FB" stroke-width="1.5"/>
<path d="M31.5781 7.52344V3.61719" stroke="#6A86FB" stroke-width="1.5"/>
<path d="M35.3281 45.2109C40.6913 45.2109 45.0391 40.8632 45.0391 35.5C45.0391 30.1368 40.6913 25.7891 35.3281 25.7891C29.9649 25.7891 25.6172 30.1368 25.6172 35.5C25.6172 40.8632 29.9649 45.2109 35.3281 45.2109Z" fill="#4DB8F5"/>
<path d="M41 32L33.8281 38.2969L30 35" stroke="white" stroke-width="1.5"/>
</svg>
