<svg width="55" height="48" viewBox="0 0 55 48" fill="none" xmlns="http://www.w3.org/2000/svg">
<path d="M46.6562 15.9375C47.2903 15.9375 47.8983 16.1894 48.3467 16.6377C48.795 17.086 49.0469 17.6941 49.0469 18.3281C49.0469 18.9622 48.795 19.5702 48.3467 20.0186C47.8983 20.4669 47.2903 20.7188 46.6562 20.7188H45.8594V15.9375H46.6562Z" fill="white"/>
<path d="M45.8594 20.7188V24.7031C45.8594 25.1258 45.6915 25.5312 45.3926 25.8301C45.0937 26.129 44.6883 26.2969 44.2656 26.2969C43.8429 26.2969 43.4376 26.129 43.1387 25.8301C42.8398 25.5312 42.6719 25.1258 42.6719 24.7031V11.9531C42.6731 11.5308 42.8415 11.1262 43.1401 10.8276C43.4387 10.529 43.8433 10.3606 44.2656 10.3594C44.6873 10.3625 45.0909 10.5314 45.3891 10.8296C45.6873 11.1278 45.8562 11.5314 45.8594 11.9531V20.7188Z" fill="white"/>
<path d="M39.4844 13.2281L34.7031 15.1406V21.5156L35.5 21.8344L39.4844 23.4281L42.6719 24.7031V11.9531L39.4844 13.2281Z" fill="white"/>
<path d="M35.5 21.8344V27.8906C35.4987 28.3129 35.3304 28.7176 35.0318 29.0162C34.7332 29.3148 34.3286 29.4831 33.9062 29.4844H32.3125C31.8902 29.4831 31.4856 29.3148 31.1869 29.0162C30.8883 28.7176 30.72 28.3129 30.7188 27.8906V21.5156H34.7031L35.5 21.8344Z" fill="white"/>
<path d="M31.5156 15.1406H34.7031V21.5156H31.5156V15.1406Z" fill="white"/>
<path d="M31.5156 15.1406V21.5156H29.9219C29.4996 21.5144 29.0949 21.346 28.7963 21.0474C28.4977 20.7488 28.3294 20.3442 28.3281 19.9219V16.7344C28.3294 16.3121 28.4977 15.9074 28.7963 15.6088C29.0949 15.3102 29.4996 15.1419 29.9219 15.1406H31.5156Z" fill="white"/>
<path d="M8 20H20V31H8V20Z" fill="#4DB8F5"/>
<path d="M46.6562 15.1406V11.9531C46.6538 11.3717 46.4392 10.8111 46.0527 10.3767C45.6662 9.94234 45.1344 9.66398 44.5572 9.59393C43.9799 9.52388 43.397 9.66696 42.9178 9.9963C42.4386 10.3256 42.0961 10.8186 41.9547 11.3826L34.5493 14.3438H29.9219C29.2878 14.3438 28.6798 14.5956 28.2314 15.044C27.7831 15.4923 27.5313 16.1004 27.5312 16.7344V19.9219C27.5313 20.5559 27.7831 21.164 28.2314 21.6123C28.6798 22.0607 29.2878 22.3125 29.9219 22.3125V27.8906C29.9219 28.5247 30.1737 29.1327 30.6221 29.5811C31.0704 30.0294 31.6785 30.2813 32.3125 30.2813H33.9062C34.5403 30.2813 35.1483 30.0294 35.5967 29.5811C36.045 29.1327 36.2969 28.5247 36.2969 27.8906V23.0114L41.9547 25.2737C42.0961 25.8377 42.4386 26.3307 42.9178 26.66C43.397 26.9893 43.9799 27.1324 44.5572 27.0624C45.1344 26.9923 45.6662 26.714 46.0527 26.2796C46.4392 25.8452 46.6538 25.2846 46.6562 24.7031V21.5156C47.5016 21.5156 48.3124 21.1798 48.9102 20.5821C49.5079 19.9843 49.8438 19.1735 49.8438 18.3281C49.8438 17.4828 49.5079 16.672 48.9102 16.0742C48.3124 15.4765 47.5016 15.1406 46.6562 15.1406ZM35.5 15.6801L41.875 13.1301V23.5262L35.5 20.9762V15.6801ZM32.3125 15.9375H33.9062V20.7188H32.3125V15.9375ZM29.125 19.9219V16.7344C29.125 16.5231 29.209 16.3204 29.3584 16.1709C29.5078 16.0215 29.7105 15.9375 29.9219 15.9375H30.7188V20.7188H29.9219C29.7105 20.7188 29.5078 20.6348 29.3584 20.4854C29.209 20.3359 29.125 20.1332 29.125 19.9219ZM34.7031 27.8906C34.7031 28.102 34.6192 28.3047 34.4697 28.4541C34.3203 28.6036 34.1176 28.6875 33.9062 28.6875H32.3125C32.1012 28.6875 31.8985 28.6036 31.749 28.4541C31.5996 28.3047 31.5156 28.102 31.5156 27.8906V22.3125H34.5493L34.7031 22.3739V27.8906ZM45.0625 24.7031C45.0625 24.9145 44.9785 25.1172 44.8291 25.2666C44.6797 25.4161 44.477 25.5 44.2656 25.5C44.0543 25.5 43.8516 25.4161 43.7021 25.2666C43.5527 25.1172 43.4688 24.9145 43.4688 24.7031V11.9531C43.4688 11.7418 43.5527 11.5391 43.7021 11.3897C43.8516 11.2402 44.0543 11.1563 44.2656 11.1563C44.477 11.1563 44.6797 11.2402 44.8291 11.3897C44.9785 11.5391 45.0625 11.7418 45.0625 11.9531V24.7031ZM46.6562 19.9219V16.7344C47.0789 16.7344 47.4843 16.9023 47.7832 17.2012C48.0821 17.5001 48.25 17.9055 48.25 18.3281C48.25 18.7508 48.0821 19.1562 47.7832 19.4551C47.4843 19.754 47.0789 19.9219 46.6562 19.9219Z" fill="#6A86FB"/>
<path d="M52.2344 6.375H40.2812V3.98438C40.28 2.92804 39.8598 1.91534 39.1129 1.16839C38.3659 0.421453 37.3532 0.00126532 36.2969 0H3.98438C2.92804 0.00126532 1.91534 0.421453 1.16839 1.16839C0.421453 1.91534 0.00126532 2.92804 0 3.98438V43.8281C0.00126532 44.8845 0.421453 45.8972 1.16839 46.6441C1.91534 47.391 2.92804 47.8112 3.98438 47.8125H36.2969C37.3532 47.8112 38.3659 47.391 39.1129 46.6441C39.8598 45.8972 40.28 44.8845 40.2812 43.8281V33.4688H52.2344C52.8684 33.4688 53.4765 33.2169 53.9248 32.7686C54.3731 32.3202 54.625 31.7122 54.625 31.0781V8.76562C54.625 8.13159 54.3731 7.52353 53.9248 7.0752C53.4765 6.62687 52.8684 6.375 52.2344 6.375ZM10.3594 1.59375H29.9219V3.1875H10.3594V1.59375ZM38.6875 43.8281C38.6875 44.4622 38.4356 45.0702 37.9873 45.5186C37.539 45.9669 36.9309 46.2188 36.2969 46.2188H3.98438C3.35034 46.2188 2.74228 45.9669 2.29395 45.5186C1.84562 45.0702 1.59375 44.4622 1.59375 43.8281V3.98438C1.59375 3.35034 1.84562 2.74228 2.29395 2.29395C2.74228 1.84562 3.35034 1.59375 3.98438 1.59375H8.76562V3.1875C8.76562 3.61019 8.93354 4.01557 9.23242 4.31445C9.53131 4.61334 9.93669 4.78125 10.3594 4.78125H29.9219C30.3446 4.78125 30.7499 4.61334 31.0488 4.31445C31.3477 4.01557 31.5156 3.61019 31.5156 3.1875V1.59375H36.2969C36.9309 1.59375 37.539 1.84562 37.9873 2.29395C38.4356 2.74228 38.6875 3.35034 38.6875 3.98438V6.375H25.1406C24.5066 6.375 23.8985 6.62687 23.4502 7.0752C23.0019 7.52353 22.75 8.13159 22.75 8.76562V31.0781C22.75 31.7122 23.0019 32.3202 23.4502 32.7686C23.8985 33.2169 24.5066 33.4688 25.1406 33.4688H27.5312V37.4531C27.5313 37.6107 27.578 37.7647 27.6656 37.8958C27.7532 38.0268 27.8776 38.1289 28.0232 38.1892C28.1688 38.2495 28.329 38.2653 28.4835 38.2345C28.6381 38.2038 28.7801 38.1279 28.8915 38.0165L33.4393 33.4688H38.6875V43.8281ZM53.0312 31.0781C53.0312 31.2895 52.9473 31.4922 52.7979 31.6416C52.6484 31.791 52.4457 31.875 52.2344 31.875H33.1094C32.898 31.875 32.6954 31.959 32.546 32.1085L29.125 35.5295V32.6719C29.125 32.4605 29.041 32.2578 28.8916 32.1084C28.7422 31.959 28.5395 31.875 28.3281 31.875H25.1406C24.9293 31.875 24.7266 31.791 24.5771 31.6416C24.4277 31.4922 24.3438 31.2895 24.3438 31.0781V8.76562C24.3438 8.55428 24.4277 8.35159 24.5771 8.20215C24.7266 8.05271 24.9293 7.96875 25.1406 7.96875H52.2344C52.4457 7.96875 52.6484 8.05271 52.7979 8.20215C52.9473 8.35159 53.0312 8.55428 53.0312 8.76562V31.0781Z" fill="#6A86FB"/>
<path d="M8 9.5625H15.9688V11.1562H8V9.5625Z" fill="#6A86FB"/>
<path d="M8 12.75H15.9688V14.3438H8V12.75Z" fill="#6A86FB"/>
<path d="M8 15.9375H15.9688V17.5312H8V15.9375Z" fill="#6A86FB"/>
<path d="M8 35.0625H17.5625V36.6562H8V35.0625Z" fill="#6A86FB"/>
<path d="M8 38.25H19.1562V39.8438H8V38.25Z" fill="#6A86FB"/>
</svg>
