<svg width="56" height="56" viewBox="0 0 56 56" fill="none" xmlns="http://www.w3.org/2000/svg">
<path d="M38.4306 11.8334H36.6046C36.3887 10.9884 36.0549 10.1827 35.6229 9.45556L36.909 8.16838C37.1348 7.94238 37.1348 7.57883 36.909 7.35284L34.651 5.0929C34.4253 4.8669 34.062 4.8669 33.8362 5.0929L32.5404 6.38991C31.8139 5.94774 31.0089 5.61367 30.1647 5.40732V3.5699C30.1647 3.25547 29.9094 3 29.5953 3H26.3949C26.0808 3 25.8255 3.25547 25.8255 3.5699V5.3975C24.9813 5.61367 24.1763 5.94774 23.4498 6.38008L22.1638 5.08307C21.938 4.85708 21.5747 4.85708 21.349 5.08307L19.091 7.34301C18.8652 7.569 18.8652 7.93256 19.091 8.15855L20.3771 9.44573C19.9451 10.1728 19.6015 10.9786 19.3954 11.8236H17.5694C17.2552 11.8236 17 12.0791 17 12.3935V15.5967C17 15.9111 17.2552 16.1666 17.5694 16.1666H19.3954C19.6113 17.0116 19.9451 17.8173 20.3771 18.5444L19.091 19.8316C18.8652 20.0576 18.8652 20.4212 19.091 20.6472L21.349 22.9071C21.5747 23.1331 21.938 23.1331 22.1638 22.9071L23.4498 21.6199C24.1763 22.0523 24.9813 22.3962 25.8255 22.6025V24.4301C25.8255 24.7445 26.0808 25 26.3949 25H29.5953C29.9094 25 30.1647 24.7445 30.1647 24.4301V22.6025C31.0089 22.3863 31.8139 22.0523 32.5404 21.6199L33.8362 22.9071C34.062 23.1331 34.4253 23.1331 34.651 22.9071L36.909 20.6472C37.1348 20.4212 37.1348 20.0576 36.909 19.8316L35.6229 18.5444C36.0549 17.8075 36.3985 17.0116 36.6046 16.1666H38.4306C38.7448 16.1666 39 15.9111 39 15.5967V12.3935C39 12.0889 38.7448 11.8334 38.4306 11.8334ZM28.0049 19.3698C25.05 19.3698 22.6448 16.9723 22.6448 14.0049C22.9295 6.89102 33.0803 6.89102 33.365 14.0049C33.365 16.9723 30.9598 19.3698 28.0049 19.3698Z" fill="#82CDF8"/>
<path d="M55.8031 37.8766C55.639 37.1438 55.2234 36.5094 54.7093 36.061C55.3765 35.6235 55.814 34.825 55.814 33.9391C55.8797 33.4578 55.5515 32.9766 55.0593 32.9875C54.2609 33.0422 52.4562 32.8016 51.7672 33.2828L49.9843 29.7828C49.3718 28.5797 48.2125 27.836 46.9437 27.836C46.6265 27.836 46.375 28.0875 46.375 28.4047C46.375 28.7219 46.6265 28.9735 46.9437 28.9735C47.775 28.9735 48.5515 29.4875 48.9781 30.2969C48.9781 30.2969 51.0453 34.3656 51.0453 34.3766C51.0453 34.3875 51.0562 34.3985 51.0562 34.4094L51.5156 35.3063C51.5156 35.3063 39.6047 35.3063 39.5937 35.3063C39.4734 35.3063 38.9922 34.0375 38.9156 33.8844C38.139 32.1344 36.8265 30.1766 34.6937 30.2313C35.1203 29.4547 35.875 28.9735 36.6953 28.9735H43.6406C44.3843 28.9625 44.3843 27.8469 43.6406 27.836H36.6953C35.2406 27.8031 33.9937 28.8531 33.425 30.2313H23.1109C22.9468 30.2313 22.7937 30.2422 22.6297 30.2641C22.0609 28.875 20.8031 27.8031 19.3375 27.836H9.08904C7.82029 27.836 6.66091 28.5797 6.04841 29.7828C5.72029 30.4391 6.7156 30.9531 7.05466 30.2969C7.47029 29.4766 8.24685 28.9735 9.08904 28.9735H19.3375C20.289 28.9516 21.1422 29.6735 21.525 30.6031C19.775 31.4781 19.0859 33.6766 18.2437 35.3063H4.50622C4.81247 34.7047 5.74216 32.8672 6.05935 32.2328C6.38747 31.5656 5.39216 31.0516 5.0531 31.7188L4.25466 33.2828C3.5656 32.7906 1.74997 33.0313 0.962474 32.9766C0.470286 32.9656 0.153099 33.4469 0.218724 33.9281C0.218724 34.825 0.656224 35.6125 1.31247 36.05C0.404661 36.8047 -0.0547136 38.1828 0.164036 39.3641L0.667161 42.3281V47.1297C0.667161 47.9828 1.32341 48.6828 2.12185 48.6828H4.65935C5.37029 48.6828 5.97185 48.136 6.1031 47.4141H13.639V52.0297C13.639 52.9594 14.35 53.7141 15.214 53.7141H18.0906C18.8781 53.7141 19.5343 53.0906 19.6547 52.2813H22.4875C23.2312 52.2813 23.2312 51.1547 22.4875 51.1438H16.9093C16.1218 51.1438 15.4437 50.4766 15.2906 49.5578C15.1047 48.4969 14.6562 45.7953 14.4703 44.7563C14.4703 44.7344 14.1859 43.061 14.1859 43.0391C14.9953 43.761 15.9687 44.286 17.0406 44.5156C17.5328 47.3156 21.2515 47.3813 21.8422 44.6031H35.9953C36.5859 47.3922 40.3047 47.3156 40.7968 44.5156C41.8468 44.286 42.8312 43.7719 43.6297 43.05C43.2687 45.2156 42.875 47.4031 42.525 49.5688C42.3718 50.4875 41.6937 51.1547 40.9172 51.1547H27.7047C27.3875 51.1547 27.1359 51.4063 27.1359 51.7234C27.1359 52.0406 27.3875 52.2922 27.7047 52.2922H38.1718C38.2812 53.1016 38.9484 53.725 39.7359 53.725H42.6125C43.4875 53.725 44.1984 52.9703 44.1984 52.0406V47.425H49.9187C50.05 48.1469 50.6406 48.6938 51.3625 48.6938H53.9C54.7093 48.6938 55.3656 47.9938 55.3656 47.1406V42.3063C55.475 41.2781 56.1312 38.8828 55.8031 37.8766ZM14.7765 51.1547C15.1593 51.6688 15.7172 52.0735 16.3515 52.2156C16.7453 52.336 18.0687 52.2594 18.4843 52.2813C18.4078 52.4563 18.2547 52.5766 18.0906 52.5766H15.214C14.6015 52.5547 14.8093 51.5594 14.7765 51.1547ZM43.0609 52.0297C43.0609 52.325 42.8531 52.5766 42.6125 52.5766H39.7359C39.5609 52.5766 39.4187 52.4563 39.3422 52.2813C39.5937 52.2703 41.0265 52.3031 41.2343 52.2594C41.9672 52.1719 42.6234 51.7453 43.0609 51.1547V52.0297ZM52.8937 34.1141H54.6656C54.589 34.7922 54.0859 35.3063 53.4843 35.3063H52.7843L52.2703 34.3C52.4562 34.1688 52.675 34.1141 52.8937 34.1141ZM18.3531 37.5813L19.0859 36.1375L19.1078 36.1047C20.2015 34.4094 20.65 31.4563 23.1109 31.3578H34.7375C35.7109 31.3578 36.6187 31.9485 37.1109 32.9C37.1109 32.9219 38.7406 36.0938 38.7406 36.1266H38.7297C38.7406 36.1375 38.7515 36.1485 38.7625 36.1703L40.0422 38.686H17.7953L18.3531 37.5813ZM3.1281 34.1141C3.34685 34.1141 3.55466 34.1797 3.75154 34.3L3.23747 35.3063H2.53747C1.93591 35.3063 1.43279 34.7922 1.35622 34.1141H3.1281ZM4.65935 47.5563H2.12185C1.69529 47.5453 1.8156 46.8453 1.79372 46.561C2.18747 47.0203 2.72341 47.3375 3.32497 47.4031C3.52185 47.4469 4.67029 47.4141 4.88904 47.425C4.83435 47.5016 4.75779 47.5563 4.65935 47.5563ZM3.62029 46.2875C3.29216 46.2875 2.98591 46.1453 2.74529 45.9047H2.73435C2.67966 45.8391 2.61404 45.7735 2.57029 45.7078C2.57029 45.7078 2.57029 45.7078 2.57029 45.6969C2.17654 45.3469 1.92497 42.711 1.77185 42.1313C1.77185 42.1313 1.30154 39.3641 1.30154 39.3531C1.97966 39.9328 2.81091 40.3375 3.66404 40.5453C4.14529 43.0172 7.44841 43.0938 8.00622 40.6328H13.4531C13.3328 40.8516 13.2562 41.0922 13.1797 41.3328H12.425C11.1453 41.3328 10.0187 41.9891 9.59216 42.9735L8.9031 44.5813C8.82654 44.7563 8.84841 44.9531 8.95779 45.1172C9.05622 45.2813 9.24216 45.3688 9.4281 45.3688H13.4312L13.5843 46.2656H3.62029V46.2875ZM4.76872 40.086C4.82341 38.3578 6.94529 38.4672 6.95622 40.086C6.92341 41.7375 4.7906 41.7375 4.76872 40.086ZM13.0265 42.6453C13.0156 42.7438 13.0375 42.8422 13.0484 42.9406C13.0375 42.9516 13.0375 42.9516 13.0484 42.9625C13.0593 43.1375 13.2343 44.0672 13.2562 44.2531H10.3031L10.6531 43.4328C10.8937 42.875 11.6265 42.4813 12.4359 42.4813H13.0156C13.0047 42.536 13.0047 42.5906 13.0265 42.6453ZM8.01716 39.5172C7.40466 37.1985 4.38591 37.0344 3.71872 39.4078C2.81091 39.1563 1.97966 38.5985 1.39997 37.8547C1.71716 37.0125 2.46091 36.4438 3.28122 36.4438H17.6531C17.6203 36.5203 17.3906 36.9688 17.3578 37.0235C17.3578 37.0235 16.2203 38.6969 16.2203 38.7078C15.6078 38.7844 14.9953 39.0031 14.5031 39.3969C14.4047 39.4735 14.35 39.5172 14.2297 39.5172C12.1625 39.5172 10.0843 39.5172 8.01716 39.5172ZM19.4468 45.5438C17.7078 45.4891 17.7187 42.5688 19.4468 42.525C21.175 42.5688 21.1859 45.5 19.4468 45.5438ZM38.3797 45.5438C36.6406 45.4891 36.6515 42.5688 38.3797 42.525C40.1187 42.5688 40.1187 45.4891 38.3797 45.5438ZM43.2468 41.825C42.5797 42.536 41.7047 43.1266 40.7422 43.3563C40.0422 40.7094 36.5531 40.7969 35.9843 43.4656H21.8422C21.2734 40.7969 17.7734 40.7094 17.0734 43.3563C15.9906 43.0719 14.9843 42.4156 14.3172 41.5078C14.6343 40.5453 15.564 39.8016 16.5922 39.8125H41.2125C42.2953 39.7906 43.1375 40.5563 43.5093 41.5188C43.4328 41.6281 43.3453 41.7266 43.2468 41.825ZM43.4765 39.5172C42.875 38.9922 42.0984 38.7078 41.3109 38.686L40.1734 36.4328H52.7406C53.5609 36.4328 54.3047 37.0016 54.6218 37.8438C54.0312 38.5766 53.2218 39.1344 52.314 39.3969C51.8875 37.7344 49.8312 37.0563 48.6172 38.3578C48.3109 38.6641 48.1031 39.0797 48.0047 39.5063H43.4765V39.5172ZM49.8531 38.8719C51.4937 38.4125 51.8 41.2672 50.1703 41.3438C48.9234 41.3438 48.6609 39.2766 49.8531 38.8719ZM44.8 42.8094C45.325 43.0828 45.5 43.7719 45.7187 44.2531H44.5812C44.625 43.9578 44.789 43.0938 44.8 42.8094ZM54.2172 47.1297C54.2172 47.3594 54.075 47.5453 53.889 47.5453H51.3515C51.264 47.5453 51.1765 47.4906 51.1218 47.4141C51.5156 47.3922 52.5656 47.4688 52.9265 47.3485C53.4297 47.2391 53.8781 46.9438 54.2172 46.55V47.1297ZM54.2281 42.1422C54.239 42.1422 53.7468 44.9422 53.7468 44.9422C53.6156 45.7188 53.0468 46.2875 52.3906 46.2875H44.2312L44.3843 45.3906H46.5718C46.9656 45.4016 47.2609 44.9641 47.0968 44.6031L46.4078 42.9953C46.1234 42.3172 45.489 41.7922 44.6906 41.5297C44.6797 41.4969 44.6687 41.4531 44.6578 41.4313C44.614 41.311 44.5812 41.1688 44.5265 41.0485C44.4828 40.9172 44.4172 40.786 44.3515 40.6656H47.9828C48.5406 43.1266 51.8547 43.05 52.325 40.5781C53.189 40.3813 53.9984 39.9656 54.6765 39.3969L54.2281 42.1422Z" fill="#6A86FB"/>
<path d="M17.5875 42.3172C17.6312 42.2625 17.675 42.2188 17.7187 42.1641C17.664 42.2078 17.6203 42.2625 17.5875 42.3172Z" fill="#6A86FB"/>
<path d="M17.7188 42.1641C17.7734 42.0985 17.8281 42.0438 17.8938 41.9891C17.8281 42.0438 17.7625 42.0985 17.7188 42.1641Z" fill="#6A86FB"/>
<path d="M18.0797 41.8469C18.1234 41.8141 18.1562 41.7922 18.2 41.7594C18.1562 41.7813 18.1125 41.8032 18.0797 41.8469Z" fill="#6A86FB"/>
<path d="M17.2922 42.7766C17.325 42.7219 17.3578 42.6672 17.3797 42.6125C17.3469 42.6672 17.3141 42.711 17.2922 42.7766Z" fill="#6A86FB"/>
<path d="M34.7922 49.7219C34.8906 49.5579 34.9125 49.361 34.8359 49.186L34.0593 47.3594C33.6 46.2657 32.3312 45.5438 30.9203 45.5438H26.9062C25.4843 45.5438 24.2265 46.2657 23.7672 47.3594L22.9906 49.186C22.8265 49.5469 23.1218 49.9844 23.5156 49.9735H34.3218C34.5078 49.9735 34.6828 49.8751 34.7922 49.7219ZM24.3687 48.836L24.8062 47.7969C25.0906 47.1298 25.9547 46.6704 26.9062 46.6704H30.9312C31.8828 46.6704 32.7468 47.1298 33.0203 47.7969L33.4578 48.836H24.3687Z" fill="#6A86FB"/>
</svg>
